<svg xmlns="http://www.w3.org/2000/svg" xmlns:xlink="http://www.w3.org/1999/xlink" width="344.974" height="69.017" viewBox="0 0 344.974 69.017">
  <defs>
    <linearGradient id="linear-gradient" y1="0.5" x2="1" y2="0.5" gradientUnits="objectBoundingBox">
      <stop offset="0" stop-color="#1c6ab2"/>
      <stop offset="1" stop-color="#1c4c77"/>
    </linearGradient>
  </defs>
  <g id="Group_895" data-name="Group 895" transform="translate(-113.953 -177.28)">
    <g id="Group_865" data-name="Group 865" transform="translate(113.953 177.28)">
      <path id="Path_1173" data-name="Path 1173" d="M162.337,183.038a11.634,11.634,0,0,0-20.075,0l-26.761,46a11.326,11.326,0,0,0,0,11.5,11.545,11.545,0,0,0,10.04,5.751h53.52a11.391,11.391,0,0,0,10.035-5.751,11.508,11.508,0,0,0,0-11.5l-5.523-9.493c-.013,0-.2-.046-.592-.123-.062-.014-.128-.029-.2-.04a66.87,66.87,0,0,0-14.114-1.032l-.059,0,7.21,12.392a2.553,2.553,0,0,1-2.228,3.83H131.02a2.554,2.554,0,0,1-2.229-3.83l21.284-36.584a2.583,2.583,0,0,1,4.457,0l8.654,14.874a31.238,31.238,0,0,1,13.987-.425Z" transform="translate(-113.953 -177.28)" fill="url(#linear-gradient)"/>
      <path id="Path_1174" data-name="Path 1174" d="M187.658,224.062c-.012,0-.2-.043-.589-.123a2.062,2.062,0,0,0-.2-.037,66.713,66.713,0,0,0-14.114-1.034h-.062c-.26.012-.527.018-.787.031a66.405,66.405,0,0,0-23.48,5.156.512.512,0,0,1-.579-.825c3.063-3.061,9.947-9,19.3-11.478.4-.1.819-.2,1.235-.3a32.646,32.646,0,0,1,14.22-.086l.018.031Z" transform="translate(-118.038 -181.803)" fill="#e66228"/>
    </g>
    <g id="Group_894" data-name="Group 894" transform="translate(198.226 192.767)">
      <g id="Group_893" data-name="Group 893">
        <g id="Group_883" data-name="Group 883" transform="translate(100.914 31.783)">
          <g id="Group_866" data-name="Group 866" transform="translate(0 0.078)">
            <path id="Path_1175" data-name="Path 1175" d="M330.161,237.058l-1.131-5.721-.037-.185h-.975l-.069.12-3.108,5.72-.185.342h1.316l.065-.125.72-1.371h1.985l.236,1.307.037.189h1.2Zm-1.611-2.3h-1.224l.915-1.736Z" transform="translate(-324.657 -231.153)" fill="#e66228"/>
          </g>
          <g id="Group_867" data-name="Group 867" transform="translate(9.808)">
            <path id="Path_1176" data-name="Path 1176" d="M340.741,233.04l-.009.221h-.221l-.744,0h-.25l.018-.25a.8.8,0,0,0-.171-.642.841.841,0,0,0-.623-.226h-.028a1.2,1.2,0,0,0-.734.212.762.762,0,0,0-.323.55c-.014.111-.051.406.568.642l.6.212.3.13a1.694,1.694,0,0,1,1.158,1.745,1.733,1.733,0,0,1-.374.961,2.06,2.06,0,0,1-.864.614,2.828,2.828,0,0,1-1.066.2h-.065a2.47,2.47,0,0,1-1.09-.254,1.866,1.866,0,0,1-.771-.711,1.814,1.814,0,0,1-.236-1.02l.014-.217h.217l.738,0h.25l-.018.244a.737.737,0,0,0,.208.628,1.007,1.007,0,0,0,.724.244h.033a1.326,1.326,0,0,0,.771-.207.73.73,0,0,0,.333-.526c.027-.207-.005-.475-.5-.67l-.693-.254-.231-.1a1.7,1.7,0,0,1-1.209-1.7,1.823,1.823,0,0,1,.374-.965,2.128,2.128,0,0,1,.854-.633,2.712,2.712,0,0,1,1.039-.2h.065a2.284,2.284,0,0,1,1.029.258,1.717,1.717,0,0,1,.711.707A1.9,1.9,0,0,1,340.741,233.04Z" transform="translate(-335.817 -231.064)" fill="#e66228"/>
          </g>
          <g id="Group_868" data-name="Group 868" transform="translate(18.515 0.078)">
            <path id="Path_1177" data-name="Path 1177" d="M350.76,231.153l-.046.272-.111.614-.037.189h-2.752l-.24,1.38h2.406l-.046.272-.106.619-.032.189H347.39l-.272,1.565h2.8l-.046.272-.111.619-.037.189h-4l.046-.272.993-5.721.037-.189Z" transform="translate(-345.723 -231.153)" fill="#e66228"/>
          </g>
          <g id="Group_869" data-name="Group 869" transform="translate(27.003)">
            <path id="Path_1178" data-name="Path 1178" d="M360.3,233.04l-.009.221h-.221l-.744,0h-.25l.018-.25a.791.791,0,0,0-.171-.642.834.834,0,0,0-.623-.226h-.028a1.207,1.207,0,0,0-.734.212.779.779,0,0,0-.323.55c-.013.111-.05.406.568.642l.6.212.3.13a1.694,1.694,0,0,1,1.158,1.745,1.727,1.727,0,0,1-.374.961,2.036,2.036,0,0,1-.863.614,2.836,2.836,0,0,1-1.067.2h-.065a2.447,2.447,0,0,1-1.085-.254,1.875,1.875,0,0,1-.776-.711,1.814,1.814,0,0,1-.235-1.02l.013-.217h.217l.739,0h.249l-.018.244a.75.75,0,0,0,.208.628,1.008,1.008,0,0,0,.725.244h.032a1.327,1.327,0,0,0,.772-.207.732.732,0,0,0,.332-.526c.027-.207,0-.475-.5-.67l-.693-.254-.23-.1a1.7,1.7,0,0,1-1.21-1.7,1.818,1.818,0,0,1,.374-.965,2.122,2.122,0,0,1,.854-.633,2.728,2.728,0,0,1,1.039-.2h.064a2.276,2.276,0,0,1,1.03.258,1.717,1.717,0,0,1,.711.707A1.9,1.9,0,0,1,360.3,233.04Z" transform="translate(-355.381 -231.064)" fill="#e66228"/>
          </g>
          <g id="Group_870" data-name="Group 870" transform="translate(36.009)">
            <path id="Path_1179" data-name="Path 1179" d="M369.657,237.447a1.721,1.721,0,0,0,.17-.142V237.3C369.772,237.35,369.717,237.4,369.657,237.447Z" transform="translate(-366.116 -231.819)" fill="#e66228"/>
            <path id="Path_1180" data-name="Path 1180" d="M369.657,237.447a1.721,1.721,0,0,0,.17-.142V237.3C369.772,237.35,369.717,237.4,369.657,237.447Z" transform="translate(-366.116 -231.819)" fill="#f39200"/>
            <path id="Path_1181" data-name="Path 1181" d="M370.665,233.39a2.626,2.626,0,0,0-.573-1.666,1.9,1.9,0,0,0-1.491-.66h-.056a2.445,2.445,0,0,0-1.491.484,3.025,3.025,0,0,0-.84.97,4.256,4.256,0,0,0-.471,1.334,5.19,5.19,0,0,0-.111,1.228,2.994,2.994,0,0,0,.277,1.187,1.917,1.917,0,0,0,.72.836,2.083,2.083,0,0,0,1.067.3h.06a2.478,2.478,0,0,0,1.741-.688,3.191,3.191,0,0,0,.706-.983,4.6,4.6,0,0,0,.374-1.247A5.649,5.649,0,0,0,370.665,233.39Zm-1.274,1.012a2.858,2.858,0,0,1-.6,1.445,1.274,1.274,0,0,1-1.011.457h-.042a.8.8,0,0,1-.683-.351,1.8,1.8,0,0,1-.236-1.071l.01-.249a4.432,4.432,0,0,1,.318-1.427,1.909,1.909,0,0,1,.6-.8,1.245,1.245,0,0,1,.752-.24h.047a.808.808,0,0,1,.693.342,1.8,1.8,0,0,1,.231,1.062A7.373,7.373,0,0,1,369.391,234.4Zm-1.237-2.424a1.566,1.566,0,0,0-.328.12A1.163,1.163,0,0,1,368.153,231.978Zm1.187,4.571a1.725,1.725,0,0,1-.171.142c.06-.046.115-.1.171-.148Z" transform="translate(-365.628 -231.064)" fill="#e66228"/>
          </g>
          <g id="Group_871" data-name="Group 871" transform="translate(45.137 0.078)">
            <path id="Path_1182" data-name="Path 1182" d="M381,233.092a1.655,1.655,0,0,0-.467-1.417,2.145,2.145,0,0,0-1.533-.518l-1.717,0h-.2l-.033.189-.992,5.721-.047.272h1.21l.032-.193.37-2.12h.96l.748,2.157.055.156h1.164l.014-.212,0-.051,0-.051-.018-.047-.808-2.207a2.3,2.3,0,0,0,.808-.6A1.891,1.891,0,0,0,381,233.092Zm-1.2-.046a.931.931,0,0,1-.369.646,1.272,1.272,0,0,1-.813.254l-.812,0,.3-1.709.947.005a.825.825,0,0,1,.609.221A.7.7,0,0,1,379.8,233.046Z" transform="translate(-376.013 -231.153)" fill="#e66228"/>
          </g>
          <g id="Group_872" data-name="Group 872" transform="translate(54.006 0.078)">
            <path id="Path_1183" data-name="Path 1183" d="M391.142,231.153l-.046.272-.111.614-.032.189H388.2l-.235,1.38h2.4l-.046.272-.106.619-.032.189h-2.405l-.272,1.565h2.8l-.046.272-.111.619-.032.189h-4l.051-.272.993-5.721.032-.189Z" transform="translate(-386.105 -231.153)" fill="#e66228"/>
          </g>
          <g id="Group_873" data-name="Group 873" transform="translate(62.498)">
            <path id="Path_1184" data-name="Path 1184" d="M400.688,233.04l-.01.221h-.221l-.744,0h-.244l.018-.25a.811.811,0,0,0-.176-.642.823.823,0,0,0-.619-.226h-.033a1.194,1.194,0,0,0-.729.212.747.747,0,0,0-.323.55c-.014.111-.055.406.568.642l.6.212.3.13a1.689,1.689,0,0,1,1.154,1.745,1.727,1.727,0,0,1-.374.961,2.036,2.036,0,0,1-.863.614,2.81,2.81,0,0,1-1.063.2h-.069a2.447,2.447,0,0,1-1.085-.254,1.829,1.829,0,0,1-.771-.711,1.732,1.732,0,0,1-.236-1.02l.009-.217H396l.739,0h.244l-.018.244a.75.75,0,0,0,.208.628,1.008,1.008,0,0,0,.725.244h.032a1.342,1.342,0,0,0,.776-.207.727.727,0,0,0,.328-.526c.027-.207,0-.475-.5-.67l-.693-.254-.23-.1a1.692,1.692,0,0,1-1.206-1.7,1.749,1.749,0,0,1,.374-.965,2.077,2.077,0,0,1,.85-.633,2.728,2.728,0,0,1,1.039-.2h.064a2.262,2.262,0,0,1,1.03.258,1.754,1.754,0,0,1,.715.707A1.951,1.951,0,0,1,400.688,233.04Z" transform="translate(-395.766 -231.064)" fill="#e66228"/>
          </g>
          <g id="Group_874" data-name="Group 874" transform="translate(77.198 0.078)">
            <path id="Path_1185" data-name="Path 1185" d="M417.391,232.622a2.178,2.178,0,0,0-.809-1.076,2.3,2.3,0,0,0-1.339-.388l-1.482,0h-.194l-.033.189-1,5.721-.046.272h1.8a3.058,3.058,0,0,0,2.16-.808,3.458,3.458,0,0,0,1.039-2.133l.042-.287A3.207,3.207,0,0,0,417.391,232.622Zm-1.113,1.879a2.288,2.288,0,0,1-.679,1.3,1.8,1.8,0,0,1-1.26.457h-.453l.7-4.022h.683a1.086,1.086,0,0,1,.762.291,1.262,1.262,0,0,1,.337.813A4.337,4.337,0,0,1,416.278,234.5Z" transform="translate(-412.492 -231.153)" fill="#e66228"/>
          </g>
          <g id="Group_875" data-name="Group 875" transform="translate(86.381 0.078)">
            <path id="Path_1186" data-name="Path 1186" d="M427.978,231.153l-.051.272-.106.614-.037.189h-2.752l-.24,1.38H427.2l-.046.272-.106.619-.032.189h-2.405l-.272,1.565h2.8l-.046.272-.111.619-.037.189h-4l.046-.272.993-5.721.037-.189Z" transform="translate(-422.941 -231.153)" fill="#e66228"/>
          </g>
          <g id="Group_876" data-name="Group 876" transform="translate(100.866)">
            <path id="Path_1187" data-name="Path 1187" d="M444.347,233.04l-.014.221h-.221l-.739,0h-.25l.018-.25a.8.8,0,0,0-.175-.642.823.823,0,0,0-.619-.226h-.028a1.2,1.2,0,0,0-.734.212.751.751,0,0,0-.323.55c-.013.111-.055.406.568.642l.6.212.3.13a1.694,1.694,0,0,1,1.158,1.745,1.731,1.731,0,0,1-.378.961,2.033,2.033,0,0,1-.864.614,2.806,2.806,0,0,1-1.062.2h-.064a2.452,2.452,0,0,1-1.09-.254,1.868,1.868,0,0,1-.772-.711,1.771,1.771,0,0,1-.235-1.02l.009-.217h.221l.739,0h.244l-.014.244a.748.748,0,0,0,.2.628,1.027,1.027,0,0,0,.729.244h.027a1.332,1.332,0,0,0,.776-.207.727.727,0,0,0,.328-.526c.032-.207,0-.475-.5-.67l-.693-.254-.236-.1a1.692,1.692,0,0,1-1.2-1.7,1.783,1.783,0,0,1,.374-.965,2.122,2.122,0,0,1,.854-.633,2.7,2.7,0,0,1,1.034-.2h.069a2.291,2.291,0,0,1,1.03.258,1.717,1.717,0,0,1,.711.707A1.953,1.953,0,0,1,444.347,233.04Z" transform="translate(-439.422 -231.064)" fill="#e66228"/>
          </g>
          <g id="Group_877" data-name="Group 877" transform="translate(109.573 0.078)">
            <path id="Path_1188" data-name="Path 1188" d="M454.365,231.153l-.051.272-.111.614-.032.189h-2.752l-.24,1.38h2.406l-.046.272-.106.619-.032.189h-2.406l-.272,1.565h2.8l-.051.272-.111.619-.032.189h-4l.046-.272.993-5.721.032-.189Z" transform="translate(-449.328 -231.153)" fill="#e66228"/>
          </g>
          <g id="Group_878" data-name="Group 878" transform="translate(118.38)">
            <path id="Path_1189" data-name="Path 1189" d="M461.711,234.014h2.474l-.041.267-.328,2.092-.009.055-.028.041a2.033,2.033,0,0,1-.942.707,3.5,3.5,0,0,1-1.288.227H461.5a2.242,2.242,0,0,1-1.1-.3,1.963,1.963,0,0,1-.744-.817,2.829,2.829,0,0,1-.3-1.154,5.593,5.593,0,0,1,.12-1.32,4.076,4.076,0,0,1,.531-1.459,2.726,2.726,0,0,1,.975-.97,2.564,2.564,0,0,1,1.293-.323h.055a2.028,2.028,0,0,1,1.426.535,2.179,2.179,0,0,1,.609,1.436l.018.25h-1.191l-.018-.213a1.068,1.068,0,0,0-.263-.693.857.857,0,0,0-.624-.24h-.06a1.256,1.256,0,0,0-.992.457,2.858,2.858,0,0,0-.6,1.51l-.074.526-.01.291a1.756,1.756,0,0,0,.272,1.062.843.843,0,0,0,.711.337h.069a1.624,1.624,0,0,0,1.029-.3l.171-.932h-1.288l.051-.268.106-.619Z" transform="translate(-459.349 -231.064)" fill="#e66228"/>
          </g>
          <g id="Group_879" data-name="Group 879" transform="translate(127.717 0.078)">
            <path id="Path_1190" data-name="Path 1190" d="M475.177,231.153l-.047.268-.66,3.865a2.433,2.433,0,0,1-.85,1.565,2.472,2.472,0,0,1-1.634.568h-.055a2.251,2.251,0,0,1-1.09-.287,1.689,1.689,0,0,1-.7-.785,2.115,2.115,0,0,1-.148-1.131l.661-3.874.032-.189h1.2l-.047.268-.656,3.869a1.033,1.033,0,0,0,.157.776.8.8,0,0,0,.651.272h.064a1.179,1.179,0,0,0,.785-.267,1.344,1.344,0,0,0,.434-.84l.665-3.888.032-.189Z" transform="translate(-469.973 -231.153)" fill="#e66228"/>
          </g>
          <g id="Group_880" data-name="Group 880" transform="translate(136.569 0.078)">
            <path id="Path_1191" data-name="Path 1191" d="M485.03,233.092a1.626,1.626,0,0,0-.466-1.417,2.133,2.133,0,0,0-1.528-.518l-1.722,0h-.194l-.033.189-1,5.721-.046.272h1.209l.037-.193.365-2.12h.965l.748,2.157.051.156h1.164l.018-.212,0-.051,0-.051-.018-.047-.812-2.207a2.308,2.308,0,0,0,.808-.6A1.855,1.855,0,0,0,485.03,233.092Zm-1.564.6a1.264,1.264,0,0,1-.813.254l-.808,0,.3-1.709.947.005a.827.827,0,0,1,.609.221.688.688,0,0,1,.139.586A.931.931,0,0,1,483.466,233.692Z" transform="translate(-480.044 -231.153)" fill="#e66228"/>
          </g>
          <g id="Group_881" data-name="Group 881" transform="translate(145.74)">
            <path id="Path_1192" data-name="Path 1192" d="M494.506,237.447a1.632,1.632,0,0,0,.171-.142V237.3C494.622,237.35,494.567,237.4,494.506,237.447Z" transform="translate(-490.966 -231.819)" fill="#e66228"/>
            <path id="Path_1193" data-name="Path 1193" d="M494.506,237.447a1.632,1.632,0,0,0,.171-.142V237.3C494.622,237.35,494.567,237.4,494.506,237.447Z" transform="translate(-490.966 -231.819)" fill="#f39200"/>
            <path id="Path_1194" data-name="Path 1194" d="M494.946,231.724a1.907,1.907,0,0,0-1.492-.66h-.06a2.458,2.458,0,0,0-1.491.484,3.09,3.09,0,0,0-.836.97,4.284,4.284,0,0,0-.475,1.334,5.705,5.705,0,0,0-.111,1.228,3.087,3.087,0,0,0,.277,1.187,1.927,1.927,0,0,0,.725.836,2.069,2.069,0,0,0,1.067.3h.06a2.476,2.476,0,0,0,1.74-.688,3.168,3.168,0,0,0,.7-.983,4.605,4.605,0,0,0,.379-1.247,6.047,6.047,0,0,0,.088-1.094A2.642,2.642,0,0,0,494.946,231.724Zm-.707,2.678a2.811,2.811,0,0,1-.591,1.445,1.281,1.281,0,0,1-1.012.457H492.6a.812.812,0,0,1-.688-.351,1.8,1.8,0,0,1-.23-1.071l.009-.249a4.454,4.454,0,0,1,.319-1.427,1.932,1.932,0,0,1,.6-.8,1.258,1.258,0,0,1,.757-.24h.042a.823.823,0,0,1,.7.342,1.759,1.759,0,0,1,.226,1.062A6.25,6.25,0,0,1,494.24,234.4Zm-.05,2.147a1.632,1.632,0,0,1-.171.142c.061-.046.116-.1.171-.148Z" transform="translate(-490.479 -231.064)" fill="#e66228"/>
          </g>
          <g id="Group_882" data-name="Group 882" transform="translate(154.863)">
            <path id="Path_1195" data-name="Path 1195" d="M505.779,233.04l-.009.221h-.221l-.744,0h-.244l.018-.25a.811.811,0,0,0-.176-.642.823.823,0,0,0-.619-.226h-.033a1.194,1.194,0,0,0-.729.212.75.75,0,0,0-.323.55c-.013.111-.055.406.569.642l.6.212.3.13a1.7,1.7,0,0,1,1.159,1.745,1.771,1.771,0,0,1-.379.961,2.033,2.033,0,0,1-.864.614,2.8,2.8,0,0,1-1.062.2h-.069a2.447,2.447,0,0,1-1.085-.254,1.829,1.829,0,0,1-.771-.711,1.732,1.732,0,0,1-.236-1.02l.009-.217h.221l.739,0h.244l-.018.244a.75.75,0,0,0,.208.628,1.014,1.014,0,0,0,.724.244h.033a1.344,1.344,0,0,0,.776-.207.727.727,0,0,0,.328-.526c.027-.207,0-.475-.5-.67l-.693-.254-.231-.1a1.692,1.692,0,0,1-1.2-1.7,1.782,1.782,0,0,1,.374-.965,2.1,2.1,0,0,1,.854-.633,2.7,2.7,0,0,1,1.034-.2h.064a2.262,2.262,0,0,1,1.03.258,1.759,1.759,0,0,1,.715.707A1.9,1.9,0,0,1,505.779,233.04Z" transform="translate(-500.858 -231.064)" fill="#e66228"/>
          </g>
        </g>
        <g id="Group_892" data-name="Group 892">
          <g id="Group_891" data-name="Group 891">
            <path id="Path_1196" data-name="Path 1196" d="M228.285,218.55a6.969,6.969,0,0,1-3.393,2.4,14.682,14.682,0,0,1-5.171.863,9.6,9.6,0,0,1-5.145-1.388,9.232,9.232,0,0,1-3.487-3.926,13.3,13.3,0,0,1-1.252-5.823v-3.114q0-5.128,2.589-8.1a8.762,8.762,0,0,1,6.956-2.971,9.241,9.241,0,0,1,6.127,1.938,8,8,0,0,1,2.758,5.34h-2.081a6.389,6.389,0,0,0-2.209-4.117,7.112,7.112,0,0,0-4.578-1.4,6.7,6.7,0,0,0-5.467,2.456q-2.014,2.456-2.014,6.927v2.914a12.163,12.163,0,0,0,.956,4.971,7.577,7.577,0,0,0,2.741,3.346,7.249,7.249,0,0,0,4.1,1.185,11.439,11.439,0,0,0,4.62-.846,4.966,4.966,0,0,0,1.861-1.3v-6.364h-6.617v-1.76h8.7Z" transform="translate(-209.838 -195.094)" fill="#1c69b1"/>
            <path id="Path_1197" data-name="Path 1197" d="M245.471,205.765a7.557,7.557,0,0,0-1.371-.119,4.947,4.947,0,0,0-3.207,1.057,5.8,5.8,0,0,0-1.87,3.072v12.575h-2.014V204.038h1.98l.033,2.911a5.386,5.386,0,0,1,5.163-3.249,3.329,3.329,0,0,1,1.337.221Z" transform="translate(-213.129 -195.967)" fill="#1c69b1"/>
            <path id="Path_1198" data-name="Path 1198" d="M262.047,220.079q-1.827,2.656-5.839,2.657a5.666,5.666,0,0,1-4.452-1.7A7.449,7.449,0,0,1,250.2,216V204.085h2.014v11.661q0,5.23,4.231,5.229,4.4,0,5.569-3.639V204.085h2.03V222.4h-1.963Z" transform="translate(-214.726 -196.013)" fill="#1c69b1"/>
            <path id="Path_1199" data-name="Path 1199" d="M286.662,213.381a11.031,11.031,0,0,1-1.895,6.795,6.037,6.037,0,0,1-5.077,2.514,6.779,6.779,0,0,1-5.755-2.64v9.342h-2.014V204.038H273.8l.1,2.589a6.5,6.5,0,0,1,5.737-2.928,6.09,6.09,0,0,1,5.153,2.488,11.269,11.269,0,0,1,1.87,6.905Zm-2.031-.356a9.417,9.417,0,0,0-1.438-5.534,4.639,4.639,0,0,0-4.011-2.031,5.345,5.345,0,0,0-5.247,3.5v8.784a5.372,5.372,0,0,0,2.082,2.4,6,6,0,0,0,3.2.83,4.6,4.6,0,0,0,3.986-2.039A10.254,10.254,0,0,0,284.631,213.025Z" transform="translate(-217.357 -195.967)" fill="#1c69b1"/>
            <path id="Path_1200" data-name="Path 1200" d="M292.525,212.924a10.772,10.772,0,0,1,1.024-4.756,7.691,7.691,0,0,1,7.134-4.468,7.534,7.534,0,0,1,5.924,2.565,9.879,9.879,0,0,1,2.268,6.795v.423a10.871,10.871,0,0,1-1.024,4.782,7.641,7.641,0,0,1-2.885,3.274,7.909,7.909,0,0,1-4.249,1.151,7.539,7.539,0,0,1-5.915-2.564,9.856,9.856,0,0,1-2.276-6.8Zm2.031.558a8.312,8.312,0,0,0,1.7,5.391,5.756,5.756,0,0,0,8.9,0,8.585,8.585,0,0,0,1.7-5.56v-.389a9.32,9.32,0,0,0-.778-3.842,6.263,6.263,0,0,0-2.184-2.7,5.579,5.579,0,0,0-3.215-.956,5.411,5.411,0,0,0-4.417,2.124,8.6,8.6,0,0,0-1.709,5.56Z" transform="translate(-219.852 -195.967)" fill="#1c69b1"/>
            <g id="Group_884" data-name="Group 884" transform="translate(101.615 1.355)">
              <path id="Path_1201" data-name="Path 1201" d="M350.756,196.831v24.642a.389.389,0,0,1-.388.388h-3.25a.388.388,0,0,1-.388-.388v-9.607l.24-8.205-7.279,17.956a.387.387,0,0,1-.36.244h-2.487a.39.39,0,0,1-.359-.244l-7.261-17.9.256,8.159v9.6a.388.388,0,0,1-.388.388h-3.25a.388.388,0,0,1-.387-.388V196.831a.389.389,0,0,1,.387-.388h4.2a.392.392,0,0,1,.36.244l7.694,19.207,7.7-19.207a.39.39,0,0,1,.36-.244h4.215A.389.389,0,0,1,350.756,196.831Z" transform="translate(-325.455 -196.443)" fill="#1c69b1"/>
            </g>
            <g id="Group_885" data-name="Group 885" transform="translate(130.86 7.345)">
              <path id="Path_1202" data-name="Path 1202" d="M374.59,221.872a9.944,9.944,0,0,1-.613-3.858v-8.426a6.118,6.118,0,0,0-2-4.648,7.633,7.633,0,0,0-5.214-1.681,9.333,9.333,0,0,0-3.823.779,7.087,7.087,0,0,0-2.79,2.142,4.725,4.725,0,0,0-1.049,2.883.383.383,0,0,0,.387.387h3.146a.386.386,0,0,0,.388-.387,2.11,2.11,0,0,1,.98-1.736,4.2,4.2,0,0,1,2.577-.771,3.594,3.594,0,0,1,2.623.864,3.128,3.128,0,0,1,.867,2.34v1.05h-2.661a10.685,10.685,0,0,0-6.346,1.654,5.567,5.567,0,0,0-2.336,4.757A5.346,5.346,0,0,0,360.6,221.4a6.863,6.863,0,0,0,4.7,1.627,7.314,7.314,0,0,0,4.939-1.855,4.844,4.844,0,0,0,.368,1.3.386.386,0,0,0,.345.217h3.285a.389.389,0,0,0,.388-.388v-.271A.43.43,0,0,0,374.59,221.872Zm-11.952-5.091c0-.74,0-2.983,5.366-2.983h2.069v3.277a4.28,4.28,0,0,1-1.72,1.739,5.17,5.17,0,0,1-2.6.709,3.366,3.366,0,0,1-2.27-.74A2.453,2.453,0,0,1,362.637,216.782Z" transform="translate(-358.729 -203.258)" fill="#1c69b1"/>
            </g>
            <g id="Group_886" data-name="Group 886" transform="translate(150.241 7.345)">
              <path id="Path_1203" data-name="Path 1203" d="M395.956,210.2v12.1a.386.386,0,0,1-.388.388h-3.131a.389.389,0,0,1-.388-.388V210.185a3.875,3.875,0,0,0-.8-2.669,3.3,3.3,0,0,0-2.486-.825,4.158,4.158,0,0,0-2.449.744,5.106,5.106,0,0,0-1.631,1.906V222.3a.388.388,0,0,1-.388.388h-3.13a.386.386,0,0,1-.388-.388V203.986a.386.386,0,0,1,.388-.387h2.96a.384.384,0,0,1,.387.367l.058,1.353a7.037,7.037,0,0,1,5.142-2.061C393.821,203.258,395.921,205.594,395.956,210.2Z" transform="translate(-380.781 -203.258)" fill="#1c69b1"/>
            </g>
            <g id="Group_887" data-name="Group 887" transform="translate(168.554 7.345)">
              <path id="Path_1204" data-name="Path 1204" d="M417.826,216.526a.249.249,0,0,1,0,.051,6.051,6.051,0,0,1-1.15,3.168,7.552,7.552,0,0,1-2.805,2.391,8.127,8.127,0,0,1-3.707.887,7.945,7.945,0,0,1-6.237-2.626,10.352,10.352,0,0,1-2.305-7.086v-.523a11.443,11.443,0,0,1,1.019-4.924,7.867,7.867,0,0,1,2.96-3.394,8.411,8.411,0,0,1,4.547-1.212,7.768,7.768,0,0,1,5.382,1.944,7.021,7.021,0,0,1,2.3,5.06.391.391,0,0,1-.108.287.387.387,0,0,1-.279.12h-2.964a.385.385,0,0,1-.383-.357,3.924,3.924,0,0,0-1.224-2.669,3.79,3.79,0,0,0-2.724-1.038,3.984,3.984,0,0,0-3.389,1.569,7.734,7.734,0,0,0-1.232,4.73v.593a7.567,7.567,0,0,0,1.224,4.641,4,4,0,0,0,3.413,1.554,4.1,4.1,0,0,0,2.685-.926,3.177,3.177,0,0,0,1.247-2.274.387.387,0,0,1,.383-.352h2.964A.386.386,0,0,1,417.826,216.526Z" transform="translate(-401.617 -203.258)" fill="#1c69b1"/>
            </g>
            <g id="Group_888" data-name="Group 888" transform="translate(187.509)">
              <path id="Path_1205" data-name="Path 1205" d="M438.359,209.184v12.1a.386.386,0,0,1-.388.388h-3.131a.388.388,0,0,1-.387-.388V209.173a3.906,3.906,0,0,0-.8-2.669,3.3,3.3,0,0,0-2.487-.825,4.169,4.169,0,0,0-2.452.744,5.127,5.127,0,0,0-1.628,1.906v12.958a.388.388,0,0,1-.387.388h-3.131a.386.386,0,0,1-.388-.388v-26a.386.386,0,0,1,.388-.387H426.7a.388.388,0,0,1,.387.387v8.91a7.036,7.036,0,0,1,5.029-1.952C436.224,202.246,438.324,204.582,438.359,209.184Z" transform="translate(-423.184 -194.901)" fill="#1c69b1"/>
            </g>
            <g id="Group_889" data-name="Group 889" transform="translate(205.802 7.345)">
              <path id="Path_1206" data-name="Path 1206" d="M458.239,205.749a7.262,7.262,0,0,0-5.846-2.491,7.733,7.733,0,0,0-4.265,1.274,8.515,8.515,0,0,0-3.049,3.506A11.413,11.413,0,0,0,444,213.074v.573a9.483,9.483,0,0,0,2.444,6.811,8.409,8.409,0,0,0,6.338,2.565,8.083,8.083,0,0,0,7.229-3.711.387.387,0,0,0-.085-.519L458.01,217.3a.376.376,0,0,0-.236-.081h-.05a.4.4,0,0,0-.256.147,6.627,6.627,0,0,1-1.906,1.7,5.076,5.076,0,0,1-2.611.624,4.569,4.569,0,0,1-3.564-1.538,5.992,5.992,0,0,1-1.464-3.727h12a.388.388,0,0,0,.388-.387v-1.306C460.311,209.731,459.614,207.384,458.239,205.749Zm-10.173,5.33a6.047,6.047,0,0,1,1.426-3.215,3.772,3.772,0,0,1,2.9-1.259,3.531,3.531,0,0,1,2.819,1.181,5.492,5.492,0,0,1,1.182,3.293Z" transform="translate(-443.998 -203.258)" fill="#1c69b1"/>
            </g>
            <g id="Group_890" data-name="Group 890" transform="translate(224.963 7.345)">
              <path id="Path_1207" data-name="Path 1207" d="M501.652,205.977a8.129,8.129,0,0,0-6.342-2.719,8.428,8.428,0,0,0-4.51,1.228,8.316,8.316,0,0,0-3.091,3.475,11.3,11.3,0,0,0-1.1,5.013v.216a10.319,10.319,0,0,0,2.41,7.113,8.1,8.1,0,0,0,6.323,2.719,8.522,8.522,0,0,0,4.579-1.244A8.17,8.17,0,0,0,503,218.312a11.35,11.35,0,0,0,1.062-4.966v-.221A10.393,10.393,0,0,0,501.652,205.977Zm-6.307,13.714A4.121,4.121,0,0,1,491.87,218a7.5,7.5,0,0,1-1.332-4.652,8.165,8.165,0,0,1,1.34-5.044,4.088,4.088,0,0,1,3.432-1.7,4.151,4.151,0,0,1,3.495,1.72,7.487,7.487,0,0,1,1.348,4.649,8.25,8.25,0,0,1-1.325,5A4.092,4.092,0,0,1,495.345,219.692Z" transform="translate(-468.32 -203.258)" fill="#1c69b1"/>
              <path id="Path_1208" data-name="Path 1208" d="M480.973,210.2v12.1a.386.386,0,0,1-.388.388h-3.13a.388.388,0,0,1-.388-.388V210.185a3.9,3.9,0,0,0-.8-2.669,3.3,3.3,0,0,0-2.487-.825,4.171,4.171,0,0,0-2.452.744,5.126,5.126,0,0,0-1.627,1.906V222.3a.388.388,0,0,1-.388.388h-3.13a.386.386,0,0,1-.388-.388V203.986a.386.386,0,0,1,.388-.387h2.959a.385.385,0,0,1,.388.367l.058,1.353a7.035,7.035,0,0,1,5.141-2.061C478.838,203.258,480.938,205.594,480.973,210.2Z" transform="translate(-465.799 -203.258)" fill="#1c69b1"/>
            </g>
          </g>
        </g>
      </g>
    </g>
  </g>
</svg>
